<?xml version="1.0" encoding="UTF-8" standalone="no"?>
<!-- Generator: Adobe Illustrator 16.0.2, SVG Export Plug-In . SVG Version: 6.00 Build 0)  -->

<svg
   xmlns:dc="http://purl.org/dc/elements/1.1/"
   xmlns:cc="http://creativecommons.org/ns#"
   xmlns:rdf="http://www.w3.org/1999/02/22-rdf-syntax-ns#"
   xmlns:svg="http://www.w3.org/2000/svg"
   xmlns="http://www.w3.org/2000/svg"
   xmlns:sodipodi="http://sodipodi.sourceforge.net/DTD/sodipodi-0.dtd"
   xmlns:inkscape="http://www.inkscape.org/namespaces/inkscape"
   version="1.1"
   id="Layer_1"
   x="0px"
   y="0px"
   width="288"
   height="384.00101"
   viewBox="0 0 288 384.00101"
   enable-background="new 0 0 512 512"
   xml:space="preserve"
   inkscape:version="0.48.4 r9939"
   sodipodi:docname="S.svg"><metadata
     id="metadata9"><rdf:RDF><cc:Work
         rdf:about=""><dc:format>image/svg+xml</dc:format><dc:type
           rdf:resource="http://purl.org/dc/dcmitype/StillImage" /></cc:Work></rdf:RDF></metadata><defs
     id="defs7" /><sodipodi:namedview
     pagecolor="#ffffff"
     bordercolor="#666666"
     borderopacity="1"
     objecttolerance="10"
     gridtolerance="10"
     guidetolerance="10"
     inkscape:pageopacity="0"
     inkscape:pageshadow="2"
     inkscape:window-width="1053"
     inkscape:window-height="967"
     id="namedview5"
     showgrid="false"
     inkscape:zoom="1.3037281"
     inkscape:cx="116.33484"
     inkscape:cy="272.94647"
     inkscape:window-x="786"
     inkscape:window-y="4"
     inkscape:window-maximized="0"
     inkscape:current-layer="Layer_1"
     fit-margin-top="0"
     fit-margin-left="0"
     fit-margin-right="0"
     fit-margin-bottom="0" /><path
     d="M 192,48 C 192,21.5 170.5,0 144,0 117.5,0 96,21.5 96,48 96,67.656 107.844,84.5 124.75,91.938 112.719,199.094 69.562,300.751 0,384.001 c 45.625,-21.344 94.813,-32 144,-32 49.187,0 98.375,10.656 144,32 C 218.437,300.751 175.281,199.095 163.25,91.938 180.156,84.5 192,67.657 192,48 z m 16,277.594 c -21.156,-3.719 -42.625,-5.625 -64,-5.625 -21.375,0 -42.844,1.906 -64,5.625 28.938,-49.5 50.563,-103.094 64,-158.813 13.468,55.688 35.062,109.313 64,158.813 z"
     id="path3"
     inkscape:connector-curvature="0"
     sodipodi:nodetypes="sssccsccscsccc"
     style="fill:#ffff00" /></svg>